# xmcd
#
# Track frame offsets:
#	150
#	7701
#	25652
#	42498
#	60839
#	80443
#	97536
#	113915
#	135966
#	152675
#	172054
#	187757
#	201074
#	219906
#	235643
#	253404
#	277367
#	301667
#
# Disc length: 4226 seconds
#
# Revision: 0
# Processed by: cddbd v1.5.1PL2 Copyright (c) Steve Scherf et al.
# Submitted via: EasyCDDAExtractor 8.1.2.3
#
DISCID=d7108012
DTITLE=Dany Boss - Street Life
DYEAR=2005
DGENRE=Rap
TTITLE0=intro
TTITLE1=je sais que tu sais
TTITLE2=ni boss ni mafia ft Kamelancien
TTITLE3=ca vient sans prevenir ft Alpha l'expert and Arafat 69
TTITLE4=tu te rapelles ft Kool shen
TTITLE5=le boss et le pop ft Dany dan
TTITLE6=joue mon son ft Lord kossity
TTITLE7=pour ceux pour celles
TTITLE8=le sens des affaires ft Koma, Mokless and Salif
TTITLE9=il est l'heure ft Ritmo de la noche and Bibo
TTITLE10=tous contre nous ft Madou.blax and John gali
TTITLE11=les rues de nos vies ft Youssoupha
TTITLE12=bordelik zik ft K.ommando toxic
TTITLE13=c'est danger ft Alcide h
TTITLE14=homicide au mic
TTITLE15=dans ma jungle ft Disciples de l'ombre and 3eme empire
TTITLE16=casse des bras ft Treize l'affreux, Candy ken and Jock r
TTITLE17=requiem ft Kamnouze, Tis.one, Alcide h and Exs
EXTD=
EXTT0=
EXTT1=
EXTT2=
EXTT3=
EXTT4=
EXTT5=
EXTT6=
EXTT7=
EXTT8=
EXTT9=
EXTT10=
EXTT11=
EXTT12=
EXTT13=
EXTT14=
EXTT15=
EXTT16=
EXTT17=
PLAYORDER=
